PathFileType	4	(X/Y/Z)	..\data\2014031\dynamic\2014031_C5_05.trc
DataRate	CameraRate	NumFrames	NumMarkers	Units	OrigDataRate	OrigDataStartFrame	OrigNumFrames
100.000000	100.000000	4	52	mm	100.000000	114	153
Frame#	Time	L_IAS			L_IPS			R_IPS			R_IAS			L_FTC			L_FLE			L_FME			L_FAX			L_TTC			L_FAL			L_TAM			L_FCC			L_FM1			L_FM2			L_FM5			R_FTC			R_FLE			R_FME			R_FAX			R_TTC			R_FAL			R_TAM			R_FCC			R_FM1			R_FM2			R_FM5			CV7			TV10			SXS			SJN			L_SIA			L_SRS			L_SAA			L_SAE			L_HLE			L_HME			L_UOA			L_RSP			L_UHE			L_HM2			L_HM5			R_SIA			R_SRS			R_SAA			R_SAE			R_HLE			R_HME			R_UOA			R_RSP			R_UHE			R_HM2			R_HM5			
		X1	Y1	Z1	X2	Y2	Z2	X3	Y3	Z3	X4	Y4	Z4	X5	Y5	Z5	X6	Y6	Z6	X7	Y7	Z7	X8	Y8	Z8	X9	Y9	Z9	X10	Y10	Z10	X11	Y11	Z11	X12	Y12	Z12	X13	Y13	Z13	X14	Y14	Z14	X15	Y15	Z15	X16	Y16	Z16	X17	Y17	Z17	X18	Y18	Z18	X19	Y19	Z19	X20	Y20	Z20	X21	Y21	Z21	X22	Y22	Z22	X23	Y23	Z23	X24	Y24	Z24	X25	Y25	Z25	X26	Y26	Z26	X27	Y27	Z27	X28	Y28	Z28	X29	Y29	Z29	X30	Y30	Z30	X31	Y31	Z31	X32	Y32	Z32	X33	Y33	Z33	X34	Y34	Z34	X35	Y35	Z35	X36	Y36	Z36	X37	Y37	Z37	X38	Y38	Z38	X39	Y39	Z39	X40	Y40	Z40	X41	Y41	Z41	X42	Y42	Z42	X43	Y43	Z43	X44	Y44	Z44	X45	Y45	Z45	X46	Y46	Z46	X47	Y47	Z47	X48	Y48	Z48	X49	Y49	Z49	X50	Y50	Z50	X51	Y51	Z51	X52	Y52	Z52	

115	1.14	1523.092529296875	948.371765136719	-327.3140258789063	1322.720336914063	964.2915039062502	-287.4678344726563	1313.47705078125	954.4946899414065	-182.354248046875	1497.625610351563	931.7437744140627	-102.3692398071289	1445.292602539063	870.9427490234377	-418.218719482422	1558.20068359375	466.6857299804689	-348.8405761718751	1543.157836914063	467.8448791503907	-219.9562225341797	1552.60693359375	406.2309875488282	-346.1669311523438	1608.198120117188	413.5885314941407	-281.0557250976563	1508.323974609375	65.83866119384767	-298.8502807617188	1530.978881835938	85.87039947509767	-207.1623077392579	1462.316162109375	19.41915512084961	-254.5938110351563	1654.054077148438	20.2900447845459	-204.537338256836	1665.304321289063	34.51806259155274	-263.3114624023438	1623.215087890625	21.94217681884766	-319.7111511230469	1408.298217773438	833.9771118164065	-47.63816452026368	1415.797485351563	444.1658020019532	-79.20791625976564	1444.697875976563	421.9219360351564	-204.4251861572266	1377.229858398438	407.9893798828126	-76.12046813964845	1428.545166015625	359.2210388183594	-119.8632354736328	1084.347290039063	241.1100769042969	-123.0697402954102	1131.938842773438	206.9459075927735	-196.6423645019532	1040.997436523438	246.6336517333985	-188.6699676513672	1096.290893554688	70.82546234130861	-176.0994415283203	1093.63525390625	74.41677093505861	-112.7904281616211	1046.458251953125	110.5590438842774	-87.18177795410158	1362.689331054688	1484.461547851563	-240.4932556152344	1290.084838867188	1204.132568359375	-231.6245574951172	1515.158569335938	1204.564086914063	-222.6593933105469	1480.609252929688	1397.449340820313	-233.9002838134766	1288.133056640625	1227.250244140625	-338.4670715332032	1337.840454101563	1384.595947265625	-371.4181823730469	1387.123779296875	1373.010498046875	-429.682098388672	1435.58642578125	1373.141479492188	-430.7295532226564	1328.942993164063	1049.057250976563	-479.4092102050782	1289.953369140625	1044.017211914063	-403.9453125000001	1288.796020507813	1036.674560546875	-453.0087890625001	1359.346923828125	789.1364746093752	-416.4833068847657	1333.411499023438	794.4486083984377	-492.5869445800782	1372.342041015625	701.9738159179689	-418.2397766113282	1306.233764648438	720.6032104492189	-495.100067138672	1279.02099609375	1237.795166015625	-131.7035369873047	1315.985961914063	1396.252807617188	-117.743408203125	1363.489501953125	1404.5400390625	-53.37653732299806	1409.153198242188	1399.947265625	-36.17009353637696	1444.688354492188	1064.305908203125	49.14091873168947	1404.228759765625	1033.993041992188	-27.37659454345704	1409.868041992188	1017.773742675781	16.89582633972168	1665.909790039063	965.809509277344	-38.17288208007813	1646.863403320313	914.2713623046877	18.6002254486084	1751.334838867188	931.9976806640627	-46.19287872314454	1707.69384765625	856.0393676757815	4.907708644866944	
116	1.15	1537.161376953125	950.499206542969	-327.9117431640626	1337.079956054688	967.069274902344	-288.6971130371094	1327.67041015625	957.3431396484377	-183.7474212646485	1511.487060546875	935.1743164062502	-102.7351760864258	1458.582397460938	872.9013671875002	-418.7474670410157	1562.524169921875	466.2349243164064	-349.1737670898438	1547.019897460938	467.4548645019532	-220.3744354248047	1555.89892578125	405.7218017578126	-346.4993896484376	1611.857543945313	412.4450683593751	-281.4469299316407	1508.38232421875	65.98585510253908	-298.8168334960938	1531.031372070313	86.05134582519533	-207.1093444824219	1462.486572265625	19.45475578308106	-254.5204467773438	1654.0556640625	20.85404014587403	-204.5615844726563	1665.217407226563	35.08024597167969	-263.3037109375001	1623.203125	22.40329742431641	-319.6896057128907	1422.955932617188	836.5928344726565	-48.5391311645508	1444.791625976563	446.9377441406251	-79.89906311035158	1474.260375976563	425.6812438964845	-205.1373748779297	1407.0732421875	411.1226501464845	-76.92961883544923	1459.115478515625	362.6260375976563	-120.7240295410157	1114.916137695313	244.0759887695313	-123.724967956543	1162.491088867188	209.6022949218751	-197.0929260253907	1070.848022460938	247.7401733398438	-189.1920471191407	1130.00927734375	73.42317199707033	-171.82080078125	1127.690307617188	78.6007766723633	-108.7896804809571	1080.404663085938	115.5628433227539	-83.7794647216797	1377.490234375	1487.190063476563	-241.0209045410157	1304.678955078125	1206.918212890625	-233.0125274658204	1529.35400390625	1207.203369140625	-222.9040679931641	1495.394165039063	1400.151489257813	-234.1801757812501	1303.36181640625	1230.504638671875	-340.4898986816407	1353.165771484375	1387.385375976563	-372.3647155761719	1402.896240234375	1375.827758789063	-430.5591125488282	1451.277099609375	1375.918090820313	-430.9600219726564	1351.2783203125	1049.839965820313	-480.5533142089845	1311.597534179688	1043.707641601563	-405.4026794433595	1311.058471679688	1036.3603515625	-454.3287353515626	1387.360107421875	790.4699707031252	-417.3717041015626	1361.4443359375	795.3664550781252	-493.5913696289064	1402.85205078125	703.6322631835939	-419.7907104492189	1336.573120117188	720.8146972656251	-496.6962280273439	1293.313842773438	1240.348266601563	-133.3208618164063	1330.376586914063	1399.034423828125	-118.5926666259766	1377.65673828125	1407.09814453125	-54.13054656982423	1423.153564453125	1402.33837890625	-36.67144393920899	1454.446411132813	1066.1630859375	48.30559539794923	1413.507202148438	1036.7138671875	-28.25179672241212	1418.832885742188	1020.4794921875	15.94843769073487	1673.265014648438	961.0559082031252	-37.58057022094727	1652.721557617188	910.5040283203127	19.61883735656739	1757.550537109375	924.4187622070315	-45.52622222900391	1711.746948242188	850.4072875976565	6.404571056365969	
117	1.16	1551.02734375	952.5905761718752	-328.5925598144532	1351.313110351563	969.8691406250002	-289.8243408203126	1341.807739257813	960.3760375976565	-184.9874725341797	1525.380859375	938.7644042968752	-103.2165298461914	1471.496826171875	874.7858886718752	-419.2489318847657	1566.303100585938	465.8536376953126	-349.5659484863282	1550.432495117188	467.1039123535157	-220.8330230712891	1558.680541992188	405.2688293457032	-346.9087219238282	1614.952026367188	411.3909606933595	-281.9265441894532	1508.393432617188	66.0883026123047	-298.8603210449219	1531.093627929688	86.23802185058595	-207.1437072753907	1462.566162109375	19.51205825805664	-254.481430053711	1654.018432617188	21.29602813720703	-204.6389312744141	1665.08984375	35.46038818359376	-263.3466491699219	1623.139404296875	22.62901687622071	-319.6669311523438	1437.621704101563	839.543884277344	-49.30588912963869	1473.388427734375	450.3635253906251	-80.69158172607423	1503.443481445313	430.2346496582032	-205.8485870361329	1436.58984375	414.6722717285157	-77.88070678710939	1489.625122070313	366.6909484863282	-121.6193466186524	1146.283813476563	245.357162475586	-124.3940124511719	1193.921508789063	211.1024932861329	-197.6280517578126	1101.279418945313	246.6338806152344	-189.5696411132813	1166.356567382813	74.92831420898439	-167.8982543945313	1164.624877929688	81.96124267578126	-105.2721023559571	1116.925415039063	118.7077865600586	-80.43865966796876	1392.18994140625	1489.949340820313	-241.4323120117188	1319.140991210938	1209.737426757813	-234.3734893798829	1543.419555664063	1209.9033203125	-223.2116394042969	1510.04150390625	1402.8984375	-234.426254272461	1318.489624023438	1233.856079101563	-342.5169677734376	1368.299438476563	1390.287719726563	-373.2356872558594	1418.453857421875	1378.832885742188	-431.3659057617189	1466.766357421875	1378.892944335938	-431.1222229003907	1373.9462890625	1050.832397460938	-481.7119445800782	1333.505737304688	1043.566284179688	-406.8873901367189	1333.598999023438	1036.188232421875	-455.672576904297	1416.155517578125	792.2996826171877	-418.1821289062501	1390.247680664063	796.650329589844	-494.5306701660157	1434.147094726563	705.8411254882814	-421.1354980468751	1367.801391601563	721.4293212890626	-498.1737365722657	1307.513916015625	1242.902954101563	-134.9178009033203	1344.632690429688	1401.791748046875	-119.4019317626953	1391.7001953125	1409.629638671875	-54.82720947265626	1437.012573242188	1404.710205078125	-37.10453414916993	1463.853637695313	1068.075073242188	47.43632125854493	1422.658325195313	1039.536743164063	-29.13807106018067	1427.54345703125	1023.308654785156	14.98278427124024	1680.025268554688	955.9487304687502	-36.84788894653321	1657.930297851563	906.5718383789065	20.85025024414063	1762.975463867188	916.3003540039065	-44.7139015197754	1714.933837890625	844.504821777344	8.16631603240967	
118	1.17	1564.703491210938	954.6257934570315	-329.4008789062501	1365.423095703125	972.652282714844	-290.8117065429688	1355.917358398438	963.5191650390627	-186.0174255371094	1539.371826171875	942.429138183594	-103.8847045898438	1484.056030273438	876.5739746093752	-419.7405395507814	1569.67919921875	465.5667419433595	-349.9956359863282	1553.562622070313	466.8361206054689	-221.3002929687501	1561.0927734375	404.9073181152345	-347.3682861328126	1617.61181640625	410.4491271972657	-282.4541931152344	1508.386352539063	66.17286682128908	-298.9501647949219	1531.198364257813	86.44142150878908	-207.2361297607422	1462.574462890625	19.62051582336426	-254.4683990478516	1653.961669921875	21.57909584045411	-204.7431945800782	1664.958251953125	35.6445655822754	-263.4170837402344	1623.041625976563	22.64951705932618	-319.6498107910157	1452.401611328125	842.7573242187502	-49.93441009521486	1501.522094726563	454.3460083007814	-81.56385040283205	1532.166381835938	435.4417114257814	-206.5421752929688	1465.72998046875	418.5344238281251	-78.92713165283205	1519.972900390625	371.3266296386719	-122.5229034423828	1178.371337890625	244.9001922607422	-125.0212707519532	1226.156982421875	211.3698883056641	-198.1865539550782	1132.297729492188	243.3977966308594	-189.7732696533203	1204.958251953125	75.3092727661133	-164.4855194091797	1203.97802734375	84.31654357910158	-102.374496459961	1155.5791015625	119.8999786376953	-77.33673095703126	1406.802001953125	1492.684326171875	-241.7453765869141	1333.516723632813	1212.529541015625	-235.6886138916016	1557.40771484375	1212.620727539063	-223.6095123291016	1524.570190429688	1405.639770507813	-234.6616973876954	1333.524291992188	1237.233764648438	-344.5236206054688	1383.233642578125	1393.2412109375	-374.0323791503907	1433.776123046875	1381.96875	-432.1065063476564	1482.034545898438	1382.018188476563	-431.2376098632814	1396.847900390625	1052.025512695313	-482.8839111328126	1355.631713867188	1043.593139648438	-408.3777770996095	1356.36279296875	1036.150756835938	-457.029754638672	1445.694702148438	794.669860839844	-418.9057922363282	1419.757202148438	798.3259277343752	-495.3853149414064	1466.1796875	708.6452026367189	-422.2547912597657	1399.84521484375	722.4925537109376	-499.4945068359376	1321.65673828125	1245.427734375	-136.4517211914063	1358.787231445313	1404.477416992188	-120.1797790527344	1405.6572265625	1412.093383789063	-55.47744369506837	1450.769287109375	1407.024658203125	-37.48839569091798	1472.9501953125	1070.005004882813	46.52508163452149	1431.717895507813	1042.424926757813	-30.06206321716309	1436.033325195313	1026.223388671875	13.97695922851563	1686.199584960938	950.5206298828127	-35.97460556030274	1662.5078125	902.504577636719	22.28005027770996	1767.616455078125	907.7056884765627	-43.73266983032227	1717.272583007813	838.387145996094	10.18601417541504	
